<svg version="1" id="Layer_1" xmlns="http://www.w3.org/2000/svg" viewBox="0 0 404.4 162.8"><style>.st0{fill:#ffffff}</style><g id="XMLID_29_"><g id="XMLID_20_"><path id="XMLID_25_" class="st0" d="M386.4 37.1c-1.8 3.5-2.4 7.6-1.6 11.5.4-2 1.3-4 2.8-5.5.9-.9 1.9-1.7 2.1-2.9.2-.9-.2-1.8-.9-2.3s-1.6-1.2-2.4-.8"/><path id="XMLID_24_" class="st0" d="M356.4 16.5c-4 12.3-5.2 23.8-.1 34.9 4.2 9.3 11.7 14.3 18.8 20.3 3 2.5 6.2 5.8 5.9 9.7-.2 2.7-2.3 5.1-4.8 6.3-4.9 2.2-10.2.4-14.2-2.6-7.2-5.2-10.8-13.2-13.3-22.4-4.3-15.4-2-34.1 7.7-46.2z"/><path id="XMLID_23_" class="st0" d="M378.4 96c-25.2 8.1-49.3-20-49.3-51 0-14.5 4.1-28.9 9.8-42.2-2.2 13.6-6.6 27.8-.8 40.3 5.7 12.5 16.1 22.8 28.6 28.5 2.9 1.3 6 2.4 8.6 4.2 2.6 1.8 4.9 4.5 5.2 7.7 2.9.2 4.9-3 5.2-5.9.2-2.9-1.2-5.6-2.8-8-4.9-6.9-12.3-11.8-17.1-18.8-3.6-5.2-5.7-11.6-5.4-17.9.3-6.3 3-12.6 7.8-16.8s11.5-6.2 17.7-4.7c6.2 1.4 11.5 6.4 13.1 12.5 1.5 6.2-2.9 12.9-8.2 16.3.6-2.9 1.8-5.7 2.4-8.6-2 2.1-3.9 4.3-6.8 4.6.9-1.6.5-4.2 1.1-5.9.5-1.6 1.6-2.9 2-4.5.3-1.4-.4-2.7-1-3.9-1.2-2.8-1.3-3-2.4-3.8-4-2.3-9.3-.9-12.6 2-2.2 1.9-3.8 4.6-4.4 7.5-1.2 5.8 1.2 11.9 4.8 16.6s8.3 8.4 12.8 12.3c4.4 3.9 8.8 8.3 11.1 13.7 3.2 7.5 1.9 16.5-2.9 23-5.5 7.6-16.1 10.4-25.1 9.6-10.1-.9-21.2-6.8-24.4-17.1"/></g><g id="XMLID_27_"><path id="XMLID_126_" class="st0" d="M36.9 89c-4.3 0-8.3-.9-11.8-2.7-3.6-1.8-6.6-4.1-9.2-7.1-2.6-2.9-4.5-6.3-5.9-10.1-1.4-3.8-2.1-7.7-2.1-11.6 0-4.1.7-8.1 2.2-11.9 1.5-3.8 3.5-7.1 6.2-10 2.6-2.9 5.7-5.2 9.3-6.9 3.5-1.7 7.4-2.6 11.5-2.6 4.3 0 8.2.9 11.8 2.8 3.6 1.8 6.6 4.2 9.2 7.2 2.5 3 4.5 6.3 5.9 10.1 1.4 3.8 2.1 7.6 2.1 11.5 0 4.1-.7 8.1-2.2 11.9-1.5 3.8-3.5 7.1-6.1 10-2.6 2.9-5.7 5.2-9.2 6.9C44.8 88.1 41 89 36.9 89zm-23-31.4c0 3.4.6 6.6 1.7 9.7 1.1 3.1 2.7 5.9 4.7 8.3 2 2.4 4.5 4.3 7.2 5.8 2.8 1.4 5.9 2.1 9.3 2.1 3.5 0 6.7-.8 9.5-2.3 2.9-1.5 5.3-3.5 7.2-5.9 2-2.4 3.5-5.2 4.6-8.3 1.1-3.1 1.6-6.2 1.6-9.4 0-3.4-.6-6.6-1.7-9.7-1.1-3.1-2.7-5.9-4.8-8.3-2-2.4-4.5-4.3-7.2-5.7-2.8-1.4-5.9-2.1-9.3-2.1-3.5 0-6.7.7-9.5 2.2-2.9 1.5-5.3 3.4-7.2 5.9-2 2.4-3.5 5.2-4.6 8.3-1 3-1.5 6.2-1.5 9.4z"/><path id="XMLID_129_" class="st0" d="M99.5 89.4c-3.8 0-7.2-1-10.2-2.9-3-1.9-5.4-4.4-7.2-7.4v28h-5.9v-64h5.3v8.8c1.9-2.9 4.3-5.2 7.2-6.9 3-1.8 6.2-2.7 9.7-2.7 3.1 0 6 .7 8.7 2 2.6 1.3 4.9 3.1 6.9 5.2 1.9 2.2 3.4 4.7 4.5 7.6 1.1 2.9 1.6 5.8 1.6 8.8 0 3.2-.5 6.2-1.5 9.1-1 2.9-2.4 5.4-4.2 7.5-1.8 2.2-4 3.9-6.5 5.1s-5.3 1.8-8.4 1.8zm-1.6-5.2c2.4 0 4.7-.5 6.6-1.6 2-1 3.7-2.4 5.1-4.1 1.4-1.7 2.5-3.7 3.3-5.8.8-2.2 1.1-4.4 1.1-6.8 0-2.4-.4-4.8-1.3-7s-2.1-4.2-3.6-5.8c-1.5-1.7-3.3-3-5.4-4-2.1-1-4.3-1.5-6.7-1.5-1.5 0-3.1.3-4.7.9-1.6.6-3.2 1.4-4.6 2.4-1.5 1-2.7 2.2-3.7 3.6s-1.6 2.8-1.9 4.3v14c.7 1.6 1.6 3.1 2.7 4.5s2.3 2.6 3.7 3.6c1.4 1 2.9 1.8 4.5 2.4 1.5.6 3.2.9 4.9.9z"/><path id="XMLID_132_" class="st0" d="M151.9 86.4c-.3.2-.9.4-1.5.7-.7.3-1.4.6-2.3.9-.9.3-1.9.6-3 .8-1.1.2-2.3.3-3.5.3-1.3 0-2.5-.2-3.7-.5-1.2-.3-2.2-.9-3.1-1.6-.9-.7-1.6-1.6-2.1-2.7s-.8-2.4-.8-3.8V47.8h-6.3v-4.7h6.3V27.7h5.9v15.4h10.5v4.7h-10.5v30.9c.1 1.7.7 2.9 1.7 3.7 1 .8 2.3 1.2 3.8 1.2 1.7 0 3.2-.3 4.5-.8 1.3-.6 2.1-.9 2.4-1.2l1.7 4.8z"/><path id="XMLID_134_" class="st0" d="M158.9 33.6v-8.7h5.9v8.7h-5.9zm0 55V43.1h5.9v45.5h-5.9z"/><path id="XMLID_137_" class="st0" d="M245.2 88.6h-5.9V63.2c0-5.3-.8-9.2-2.5-11.7s-4.2-3.8-7.6-3.8c-1.7 0-3.4.3-4.9 1-1.5.6-3 1.5-4.3 2.7-1.3 1.2-2.5 2.5-3.4 4.1-1 1.6-1.7 3.4-2.3 5.3v27.8h-5.9V63.2c0-5.4-.8-9.3-2.4-11.8-1.6-2.4-4.1-3.7-7.5-3.7-3.4 0-6.5 1.2-9.2 3.6-2.7 2.4-4.6 5.5-5.8 9.4v27.8h-5.9V43.1h5.4v10.3c1.9-3.5 4.3-6.2 7.3-8.2 3-1.9 6.4-2.9 10-2.9 3.8 0 6.9 1.1 9.3 3.2 2.3 2.2 3.7 5 4.2 8.5 4.2-7.8 10.1-11.7 17.6-11.7 2.5 0 4.6.5 6.4 1.4 1.8.9 3.2 2.3 4.3 4 1.1 1.7 1.9 3.8 2.4 6.2.5 2.4.7 5.1.7 8.1v26.6z"/><path id="XMLID_139_" class="st0" d="M269.6 89.4c-2.3 0-4.5-.4-6.4-1.1-1.9-.7-3.6-1.7-4.9-3-1.4-1.3-2.4-2.8-3.2-4.5-.8-1.7-1.1-3.5-1.1-5.3 0-2.1.5-4 1.4-5.7.9-1.7 2.2-3.2 3.9-4.4 1.7-1.2 3.7-2.2 6.1-2.8 2.4-.7 5-1 7.8-1 2.3 0 4.6.2 7 .6 2.4.4 4.5 1 6.4 1.7v-4.1c0-4-1.2-7.2-3.4-9.6-2.3-2.4-5.4-3.5-9.3-3.5-2.4 0-4.9.5-7.3 1.4-2.4.9-4.9 2.3-7.4 4l-2.1-3.9c3-2 5.8-3.5 8.6-4.5s5.7-1.5 8.7-1.5c5.5 0 9.9 1.6 13.2 4.8 3.3 3.2 4.9 7.6 4.9 13.3v20.5c0 1.6.7 2.4 2.1 2.4v5.2c-.5.1-.9.1-1.3.1h-1c-1.2 0-2.2-.3-3.2-1s-1.5-1.7-1.6-3.1l-.2-3.6c-2 2.7-4.6 4.8-7.8 6.2-3.3 1.7-6.6 2.4-9.9 2.4zm1.5-4.5c2.6 0 5.2-.6 7.8-1.7 2.6-1.1 4.6-2.7 6.2-4.7.4-.5.8-1.1 1-1.7.3-.6.4-1.2.4-1.7v-7.4c-2-.8-4-1.3-6.2-1.7-2.2-.4-4.2-.6-6.3-.6-4.2 0-7.7.9-10.3 2.6-2.6 1.7-4 4.1-4 7.1 0 1.2.2 2.4.7 3.6.5 1.2 1.2 2.2 2.1 3.1 1 .9 2.1 1.7 3.5 2.3 1.5.5 3.1.8 5.1.8z"/><path id="XMLID_142_" class="st0" d="M305.6 24.8h5.9v53.4c0 1.7.5 3 1.4 4 .9 1 2.2 1.4 3.9 1.4.6 0 1.4-.1 2.3-.3.9-.2 1.7-.4 2.4-.7l1 4.8c-1.1.5-2.5.8-4.1 1.1-1.6.3-3 .4-4.1.4-2.7 0-4.9-.8-6.5-2.3-1.6-1.5-2.4-3.7-2.4-6.5V24.8z"/></g><g id="XMLID_26_"><path id="XMLID_100_" class="st0" d="M29.6 123.2c0-2.7.5-5.3 1.4-8 .9-2.7 2.3-5 4.1-7.1 1.8-2.1 4-3.8 6.6-5.1 2.6-1.3 5.6-2 8.9-2 4 0 7.4.9 10.2 2.7 2.8 1.8 4.9 4.2 6.2 7l-2.6 1.5c-.8-1.5-1.7-2.8-2.7-3.9-1.1-1-2.2-1.9-3.4-2.5-1.2-.6-2.5-1.1-3.9-1.4-1.3-.3-2.7-.4-4-.4-2.8 0-5.4.6-7.5 1.7-2.2 1.2-4 2.6-5.5 4.5-1.5 1.8-2.6 3.9-3.4 6.2-.8 2.3-1.2 4.7-1.2 7 0 2.6.5 5.1 1.4 7.5.9 2.4 2.2 4.5 3.8 6.3 1.6 1.8 3.5 3.3 5.6 4.4 2.2 1.1 4.5 1.6 7 1.6 1.3 0 2.7-.2 4.1-.5 1.4-.3 2.8-.9 4.1-1.6 1.3-.7 2.5-1.6 3.7-2.7 1.1-1.1 2.1-2.4 2.8-3.9l2.7 1.3c-.8 1.7-1.8 3.2-3 4.5-1.3 1.3-2.7 2.4-4.3 3.3-1.6.9-3.3 1.5-5 2-1.8.4-3.5.7-5.2.7-3.1 0-5.8-.7-8.4-2-2.5-1.3-4.7-3.1-6.6-5.2-1.8-2.2-3.3-4.6-4.3-7.3-1.1-2.9-1.6-5.7-1.6-8.6z"/><path id="XMLID_102_" class="st0" d="M92.2 146.4c-2.3 0-4.4-.5-6.4-1.3-1.9-.9-3.6-2.1-5-3.7-1.4-1.5-2.5-3.3-3.3-5.4-.8-2-1.2-4.2-1.2-6.5s.4-4.5 1.2-6.5c.8-2 1.9-3.8 3.4-5.4 1.4-1.5 3.1-2.8 5-3.7 1.9-.9 4-1.3 6.3-1.3s4.4.4 6.3 1.3c1.9.9 3.6 2.1 5.1 3.7 1.4 1.5 2.6 3.3 3.4 5.4.8 2 1.2 4.2 1.2 6.5s-.4 4.4-1.2 6.5c-.8 2-1.9 3.8-3.4 5.4-1.4 1.5-3.1 2.8-5.1 3.7-1.9.9-4 1.3-6.3 1.3zm-12.7-16.7c0 1.9.3 3.7 1 5.4.7 1.7 1.6 3.2 2.7 4.4 1.1 1.3 2.5 2.2 4 3 1.5.7 3.2 1.1 5 1.1s3.4-.4 5-1.1c1.5-.7 2.9-1.7 4-3s2.1-2.8 2.8-4.5 1-3.5 1-5.5c0-1.9-.3-3.7-1-5.4-.7-1.7-1.6-3.2-2.8-4.5-1.2-1.3-2.5-2.3-4-3-1.5-.8-3.2-1.1-5-1.1-1.7 0-3.3.4-4.9 1.1-1.5.8-2.9 1.8-4.1 3.1-1.2 1.3-2.1 2.8-2.8 4.5-.6 1.7-.9 3.6-.9 5.5z"/><path id="XMLID_105_" class="st0" d="M129.3 146.4c-7 0-10.5-4.8-10.5-14.4v-18.8h3.1v18.4c0 8 2.7 12 8.2 12 1.4 0 2.7-.2 4-.7 1.3-.5 2.5-1.1 3.7-2 1.1-.9 2.1-1.9 3-3.1.9-1.2 1.5-2.6 2-4v-20.6h3.1v28.2c0 1 .4 1.6 1.3 1.6v2.8c-.3 0-.5.1-.6.1h-.5c-.9 0-1.6-.3-2.2-.8-.6-.5-.8-1.2-.8-2v-5c-1.5 2.6-3.4 4.7-5.9 6.1-2.3 1.5-5 2.2-7.9 2.2z"/><path id="XMLID_107_" class="st0" d="M186.3 145.8h-3.1v-18.2c0-4.2-.6-7.3-1.8-9.2-1.2-1.9-3.1-2.9-5.7-2.9-1.4 0-2.8.3-4.1.8-1.4.5-2.6 1.2-3.8 2.1-1.2.9-2.2 2-3 3.2-.9 1.2-1.5 2.6-1.9 4v20.2h-3.1v-32.6h2.9v7.8c.7-1.3 1.5-2.4 2.5-3.4s2.1-1.9 3.3-2.6c1.2-.7 2.5-1.3 3.9-1.7 1.4-.4 2.8-.6 4.3-.6 3.6 0 6.1 1.2 7.5 3.7 1.5 2.5 2.2 6.1 2.2 10.7v18.7z"/><path id="XMLID_109_" class="st0" d="M209.5 146.4c-2.5 0-4.9-.4-7.2-1.3-2.3-.8-4.3-2.1-6-3.8l1.6-2.1c1.8 1.6 3.6 2.8 5.5 3.5 1.9.8 4 1.1 6.2 1.1 2.8 0 5.1-.6 6.9-1.8 1.7-1.2 2.6-2.9 2.6-5 0-1-.2-1.9-.7-2.5s-1.1-1.3-2-1.8c-.9-.5-2-.9-3.3-1.3-1.3-.4-2.8-.8-4.5-1.2-1.8-.4-3.4-.8-4.8-1.3-1.4-.4-2.5-.9-3.4-1.5-.9-.6-1.5-1.3-2-2.1-.4-.8-.7-1.9-.7-3.2 0-1.6.3-3.1.9-4.3.6-1.2 1.5-2.2 2.6-3 1.1-.8 2.4-1.4 3.8-1.8 1.4-.4 3-.6 4.6-.6 2.6 0 4.8.4 6.8 1.3s3.5 2 4.6 3.3l-1.8 1.7c-1.1-1.3-2.5-2.2-4.2-2.8-1.7-.6-3.6-.9-5.6-.9-1.2 0-2.4.1-3.4.4s-2 .6-2.8 1.2c-.8.5-1.4 1.2-1.9 2.1-.5.9-.7 1.9-.7 3 0 1 .2 1.7.5 2.3.3.6.8 1.1 1.5 1.5.7.4 1.6.8 2.7 1.1 1.1.3 2.4.7 3.9 1 2 .5 3.9 1 5.5 1.4 1.6.5 2.9 1 4 1.7s1.9 1.5 2.4 2.4c.6.9.8 2.1.8 3.5 0 2.9-1.1 5.3-3.4 7-2.1 2-5.2 2.8-9 2.8z"/><path id="XMLID_111_" class="st0" d="M246.8 146.4c-2.3 0-4.4-.5-6.4-1.3-2-.9-3.7-2.1-5.1-3.7-1.4-1.6-2.6-3.4-3.4-5.4-.8-2-1.2-4.2-1.2-6.6 0-2.3.4-4.5 1.2-6.5.8-2 1.9-3.8 3.4-5.3 1.4-1.5 3.1-2.7 5.1-3.6 2-.9 4.1-1.3 6.3-1.3 2.3 0 4.4.4 6.4 1.3 1.9.9 3.6 2.1 5 3.6s2.5 3.3 3.4 5.3c.8 2 1.2 4.2 1.2 6.4v1.4H234c.1 1.9.6 3.6 1.3 5.2.8 1.6 1.7 3 2.9 4.2 1.1 1.2 2.5 2.1 4 2.8 1.5.7 3.1 1 4.8 1 1.1 0 2.2-.2 3.4-.5 1.1-.3 2.1-.7 3.1-1.3.9-.5 1.8-1.2 2.5-2s1.3-1.6 1.7-2.5l2.8.8c-.5 1.2-1.2 2.2-2.1 3.2-.9 1-1.9 1.8-3.1 2.5-1.2.7-2.5 1.3-3.9 1.7-1.6.4-3.1.6-4.6.6zm12.8-18.1c-.1-1.9-.6-3.7-1.3-5.3-.7-1.6-1.7-3-2.8-4.1-1.2-1.1-2.5-2-4-2.7-1.5-.6-3.1-1-4.8-1-1.7 0-3.3.3-4.8 1-1.5.6-2.8 1.5-4 2.7-1.2 1.2-2.1 2.5-2.8 4.1-.7 1.6-1.1 3.4-1.2 5.2h25.7z"/><path id="XMLID_114_" class="st0" d="M273.3 100h3.2v39.3c0 1.2.3 2.2 1 2.9.7.7 1.6 1.1 2.9 1.1.5 0 1-.1 1.7-.2.6-.1 1.2-.3 1.8-.5l.6 2.5c-.7.3-1.6.5-2.6.7-1 .2-1.9.3-2.7.3-1.8 0-3.2-.5-4.2-1.6-1.1-1.1-1.6-2.5-1.6-4.3V100z"/><path id="XMLID_116_" class="st0" d="M292.5 100h3.2v39.3c0 1.2.3 2.2 1 2.9.7.7 1.6 1.1 2.9 1.1.5 0 1-.1 1.7-.2.6-.1 1.2-.3 1.8-.5l.6 2.5c-.7.3-1.6.5-2.6.7-1 .2-1.9.3-2.7.3-1.8 0-3.2-.5-4.2-1.6-1.1-1.1-1.6-2.5-1.6-4.3V100z"/><path id="XMLID_118_" class="st0" d="M311.5 105.8V100h3.1v5.8h-3.1zm0 40v-32.6h3.1v32.6h-3.1z"/><path id="XMLID_121_" class="st0" d="M354.5 145.8h-3.1v-18.2c0-4.2-.6-7.3-1.8-9.2-1.2-1.9-3.1-2.9-5.7-2.9-1.4 0-2.8.3-4.1.8-1.4.5-2.6 1.2-3.8 2.1-1.2.9-2.2 2-3 3.2-.9 1.2-1.5 2.6-1.9 4v20.2H328v-32.6h2.9v7.8c.7-1.3 1.5-2.4 2.5-3.4s2.1-1.9 3.3-2.6c1.2-.7 2.5-1.3 3.9-1.7 1.4-.4 2.8-.6 4.3-.6 3.6 0 6.1 1.2 7.5 3.7 1.5 2.5 2.2 6.1 2.2 10.7v18.7z"/><path id="XMLID_123_" class="st0" d="M380.6 146.3c-2.3 0-4.3-.5-6.2-1.4s-3.5-2.2-4.9-3.8c-1.4-1.6-2.4-3.4-3.2-5.4s-1.1-4.1-1.1-6.2c0-2.2.4-4.3 1.1-6.4.7-2 1.8-3.9 3.1-5.4 1.3-1.6 2.9-2.8 4.8-3.7 1.9-.9 3.9-1.4 6.1-1.4 2.8 0 5.3.7 7.4 2.2 2.1 1.5 3.9 3.3 5.4 5.4v-7.1h2.8v33.2c0 2.2-.4 4.2-1.3 5.8-.8 1.7-2 3.1-3.4 4.2s-3 1.9-4.9 2.5c-1.9.6-3.8.8-5.9.8-1.9 0-3.6-.2-5.1-.5-1.5-.4-2.8-.9-4-1.5-1.2-.6-2.2-1.4-3.1-2.4-.9-.9-1.7-2-2.4-3.1l2.1-1.4c1.3 2.2 3.1 3.8 5.3 4.9 2.2 1 4.6 1.5 7.1 1.5 1.7 0 3.3-.2 4.7-.7 1.5-.5 2.8-1.1 3.9-2 1.1-.9 2-2 2.6-3.4.6-1.3 1-2.9 1-4.7v-7.2c-1.3 2.1-3.1 3.8-5.3 5.1-1.9 1.5-4.2 2.1-6.6 2.1zm.8-2.7c1.4 0 2.7-.3 4-.8 1.3-.5 2.5-1.2 3.5-2 1.1-.8 2-1.8 2.7-2.8.7-1 1.1-2.1 1.3-3.1v-10.7c-.5-1.3-1.2-2.4-2-3.5s-1.8-2-2.9-2.7c-1.1-.8-2.2-1.3-3.4-1.8-1.2-.4-2.5-.7-3.7-.7-2 0-3.7.4-5.3 1.3-1.5.8-2.9 1.9-3.9 3.3-1.1 1.3-1.9 2.9-2.4 4.5-.6 1.7-.8 3.4-.8 5.1 0 1.9.3 3.7 1 5.3.7 1.7 1.6 3.2 2.8 4.5 1.2 1.3 2.6 2.3 4.1 3.1 1.5.6 3.2 1 5 1z"/></g></g></svg>