<?xml version="1.0" encoding="utf-8"?>
<!-- Generator: Adobe Illustrator 19.0.0, SVG Export Plug-In . SVG Version: 6.00 Build 0)  -->
<svg version="1.0" id="Layer_1" xmlns="http://www.w3.org/2000/svg" xmlns:xlink="http://www.w3.org/1999/xlink" x="0px" y="0px"
	 viewBox="0 0 404.4 162.8" style="enable-background:new 0 0 404.4 162.8;" xml:space="preserve">
<style type="text/css">
	.st0{fill:#231F20;}
</style>
<g id="XMLID_29_">
	<g id="XMLID_20_">
		<path id="XMLID_25_" class="st0" d="M386.4,37.1c-1.8,3.5-2.4,7.6-1.6,11.5c0.4-2,1.3-4,2.8-5.5c0.9-0.9,1.9-1.7,2.1-2.9
			c0.2-0.9-0.2-1.8-0.9-2.3S387.2,36.7,386.4,37.1"/>
		<path id="XMLID_24_" class="st0" d="M356.4,16.5c-4,12.3-5.2,23.8-0.1,34.9c4.2,9.3,11.7,14.3,18.8,20.3c3,2.5,6.2,5.8,5.9,9.7
			c-0.2,2.7-2.3,5.1-4.8,6.3c-4.9,2.2-10.2,0.4-14.2-2.6c-7.2-5.2-10.8-13.2-13.3-22.4C344.4,47.3,346.7,28.6,356.4,16.5z"/>
		<path id="XMLID_23_" class="st0" d="M378.4,96c-25.2,8.1-49.3-20-49.3-51c0-14.5,4.1-28.9,9.8-42.2c-2.2,13.6-6.6,27.8-0.8,40.3
			c5.7,12.5,16.1,22.8,28.6,28.5c2.9,1.3,6,2.4,8.6,4.2c2.6,1.8,4.9,4.5,5.2,7.7c2.9,0.2,4.9-3,5.2-5.9c0.2-2.9-1.2-5.6-2.8-8
			c-4.9-6.9-12.3-11.8-17.1-18.8c-3.6-5.2-5.7-11.6-5.4-17.9c0.3-6.3,3-12.6,7.8-16.8s11.5-6.2,17.7-4.7c6.2,1.4,11.5,6.4,13.1,12.5
			c1.5,6.2-2.9,12.9-8.2,16.3c0.6-2.9,1.8-5.7,2.4-8.6c-2,2.1-3.9,4.3-6.8,4.6c0.9-1.6,0.5-4.2,1.1-5.9c0.5-1.6,1.6-2.9,2-4.5
			c0.3-1.4-0.4-2.7-1-3.9c-1.2-2.8-1.3-3-2.4-3.8c-4-2.3-9.3-0.9-12.6,2c-2.2,1.9-3.8,4.6-4.4,7.5c-1.2,5.8,1.2,11.9,4.8,16.6
			s8.3,8.4,12.8,12.3c4.4,3.9,8.8,8.3,11.1,13.7c3.2,7.5,1.9,16.5-2.9,23c-5.5,7.6-16.1,10.4-25.1,9.6c-10.1-0.9-21.2-6.8-24.4-17.1
			"/>
	</g>
	<g id="XMLID_27_">
		<path id="XMLID_126_" class="st0" d="M36.9,89c-4.3,0-8.3-0.9-11.8-2.7c-3.6-1.8-6.6-4.1-9.2-7.1c-2.6-2.9-4.5-6.3-5.9-10.1
			c-1.4-3.8-2.1-7.7-2.1-11.6c0-4.1,0.7-8.1,2.2-11.9c1.5-3.8,3.5-7.1,6.2-10c2.6-2.9,5.7-5.2,9.3-6.9c3.5-1.7,7.4-2.6,11.5-2.6
			c4.3,0,8.2,0.9,11.8,2.8c3.6,1.8,6.6,4.2,9.2,7.2c2.5,3,4.5,6.3,5.9,10.1c1.4,3.8,2.1,7.6,2.1,11.5c0,4.1-0.7,8.1-2.2,11.9
			c-1.5,3.8-3.5,7.1-6.1,10c-2.6,2.9-5.7,5.2-9.2,6.9C44.8,88.1,41,89,36.9,89z M13.9,57.6c0,3.4,0.6,6.6,1.7,9.7
			c1.1,3.1,2.7,5.9,4.7,8.3c2,2.4,4.5,4.3,7.2,5.8c2.8,1.4,5.9,2.1,9.3,2.1c3.5,0,6.7-0.8,9.5-2.3c2.9-1.5,5.3-3.5,7.2-5.9
			c2-2.4,3.5-5.2,4.6-8.3c1.1-3.1,1.6-6.2,1.6-9.4c0-3.4-0.6-6.6-1.7-9.7c-1.1-3.1-2.7-5.9-4.8-8.3c-2-2.4-4.5-4.3-7.2-5.7
			c-2.8-1.4-5.9-2.1-9.3-2.1c-3.5,0-6.7,0.7-9.5,2.2c-2.9,1.5-5.3,3.4-7.2,5.9c-2,2.4-3.5,5.2-4.6,8.3
			C14.4,51.2,13.9,54.4,13.9,57.6z"/>
		<path id="XMLID_129_" class="st0" d="M99.5,89.4c-3.8,0-7.2-1-10.2-2.9c-3-1.9-5.4-4.4-7.2-7.4v28h-5.9V43.1h5.3v8.8
			c1.9-2.9,4.3-5.2,7.2-6.9c3-1.8,6.2-2.7,9.7-2.7c3.1,0,6,0.7,8.7,2c2.6,1.3,4.9,3.1,6.9,5.2c1.9,2.2,3.4,4.7,4.5,7.6
			c1.1,2.9,1.6,5.8,1.6,8.8c0,3.2-0.5,6.2-1.5,9.1c-1,2.9-2.4,5.4-4.2,7.5c-1.8,2.2-4,3.9-6.5,5.1S102.6,89.4,99.5,89.4z M97.9,84.2
			c2.4,0,4.7-0.5,6.6-1.6c2-1,3.7-2.4,5.1-4.1c1.4-1.7,2.5-3.7,3.3-5.8c0.8-2.2,1.1-4.4,1.1-6.8c0-2.4-0.4-4.8-1.3-7
			c-0.9-2.2-2.1-4.2-3.6-5.8c-1.5-1.7-3.3-3-5.4-4c-2.1-1-4.3-1.5-6.7-1.5c-1.5,0-3.1,0.3-4.7,0.9c-1.6,0.6-3.2,1.4-4.6,2.4
			c-1.5,1-2.7,2.2-3.7,3.6c-1,1.4-1.6,2.8-1.9,4.3v14c0.7,1.6,1.6,3.1,2.7,4.5c1.1,1.4,2.3,2.6,3.7,3.6c1.4,1,2.9,1.8,4.5,2.4
			C94.5,83.9,96.2,84.2,97.9,84.2z"/>
		<path id="XMLID_132_" class="st0" d="M151.9,86.4c-0.3,0.2-0.9,0.4-1.5,0.7c-0.7,0.3-1.4,0.6-2.3,0.9c-0.9,0.3-1.9,0.6-3,0.8
			c-1.1,0.2-2.3,0.3-3.5,0.3c-1.3,0-2.5-0.2-3.7-0.5c-1.2-0.3-2.2-0.9-3.1-1.6c-0.9-0.7-1.6-1.6-2.1-2.7c-0.5-1.1-0.8-2.4-0.8-3.8
			V47.8h-6.3v-4.7h6.3V27.7h5.9v15.4h10.5v4.7h-10.5v30.9c0.1,1.7,0.7,2.9,1.7,3.7c1,0.8,2.3,1.2,3.8,1.2c1.7,0,3.2-0.3,4.5-0.8
			c1.3-0.6,2.1-0.9,2.4-1.2L151.9,86.4z"/>
		<path id="XMLID_134_" class="st0" d="M158.9,33.6v-8.7h5.9v8.7H158.9z M158.9,88.6V43.1h5.9v45.5H158.9z"/>
		<path id="XMLID_137_" class="st0" d="M245.2,88.6h-5.9V63.2c0-5.3-0.8-9.2-2.5-11.7c-1.7-2.5-4.2-3.8-7.6-3.8
			c-1.7,0-3.4,0.3-4.9,1c-1.5,0.6-3,1.5-4.3,2.7c-1.3,1.2-2.5,2.5-3.4,4.1c-1,1.6-1.7,3.4-2.3,5.3v27.8h-5.9V63.2
			c0-5.4-0.8-9.3-2.4-11.8c-1.6-2.4-4.1-3.7-7.5-3.7c-3.4,0-6.5,1.2-9.2,3.6c-2.7,2.4-4.6,5.5-5.8,9.4v27.8h-5.9V43.1h5.4v10.3
			c1.9-3.5,4.3-6.2,7.3-8.2c3-1.9,6.4-2.9,10-2.9c3.8,0,6.9,1.1,9.3,3.2c2.3,2.2,3.7,5,4.2,8.5c4.2-7.8,10.1-11.7,17.6-11.7
			c2.5,0,4.6,0.5,6.4,1.4c1.8,0.9,3.2,2.3,4.3,4c1.1,1.7,1.9,3.8,2.4,6.2c0.5,2.4,0.7,5.1,0.7,8.1V88.6z"/>
		<path id="XMLID_139_" class="st0" d="M269.6,89.4c-2.3,0-4.5-0.4-6.4-1.1c-1.9-0.7-3.6-1.7-4.9-3c-1.4-1.3-2.4-2.8-3.2-4.5
			c-0.8-1.7-1.1-3.5-1.1-5.3c0-2.1,0.5-4,1.4-5.7c0.9-1.7,2.2-3.2,3.9-4.4c1.7-1.2,3.7-2.2,6.1-2.8c2.4-0.7,5-1,7.8-1
			c2.3,0,4.6,0.2,7,0.6c2.4,0.4,4.5,1,6.4,1.7v-4.1c0-4-1.2-7.2-3.4-9.6c-2.3-2.4-5.4-3.5-9.3-3.5c-2.4,0-4.9,0.5-7.3,1.4
			c-2.4,0.9-4.9,2.3-7.4,4l-2.1-3.9c3-2,5.8-3.5,8.6-4.5c2.8-1,5.7-1.5,8.7-1.5c5.5,0,9.9,1.6,13.2,4.8c3.3,3.2,4.9,7.6,4.9,13.3
			v20.5c0,1.6,0.7,2.4,2.1,2.4v5.2c-0.5,0.1-0.9,0.1-1.3,0.1c-0.4,0-0.8,0-1,0c-1.2,0-2.2-0.3-3.2-1c-1-0.7-1.5-1.7-1.6-3.1
			l-0.2-3.6c-2,2.7-4.6,4.8-7.8,6.2C276.2,88.7,272.9,89.4,269.6,89.4z M271.1,84.9c2.6,0,5.2-0.6,7.8-1.7c2.6-1.1,4.6-2.7,6.2-4.7
			c0.4-0.5,0.8-1.1,1-1.7c0.3-0.6,0.4-1.2,0.4-1.7v-7.4c-2-0.8-4-1.3-6.2-1.7c-2.2-0.4-4.2-0.6-6.3-0.6c-4.2,0-7.7,0.9-10.3,2.6
			c-2.6,1.7-4,4.1-4,7.1c0,1.2,0.2,2.4,0.7,3.6c0.5,1.2,1.2,2.2,2.1,3.1c1,0.9,2.1,1.7,3.5,2.3C267.5,84.6,269.1,84.9,271.1,84.9z"
			/>
		<path id="XMLID_142_" class="st0" d="M305.6,24.8h5.9v53.4c0,1.7,0.5,3,1.4,4c0.9,1,2.2,1.4,3.9,1.4c0.6,0,1.4-0.1,2.3-0.3
			c0.9-0.2,1.7-0.4,2.4-0.7l1,4.8c-1.1,0.5-2.5,0.8-4.1,1.1c-1.6,0.3-3,0.4-4.1,0.4c-2.7,0-4.9-0.8-6.5-2.3
			c-1.6-1.5-2.4-3.7-2.4-6.5V24.8z"/>
	</g>
	<g id="XMLID_26_">
		<path id="XMLID_100_" class="st0" d="M29.6,123.2c0-2.7,0.5-5.3,1.4-8c0.9-2.7,2.3-5,4.1-7.1c1.8-2.1,4-3.8,6.6-5.1
			c2.6-1.3,5.6-2,8.9-2c4,0,7.4,0.9,10.2,2.7c2.8,1.8,4.9,4.2,6.2,7l-2.6,1.5c-0.8-1.5-1.7-2.8-2.7-3.9c-1.1-1-2.2-1.9-3.4-2.5
			c-1.2-0.6-2.5-1.1-3.9-1.4c-1.3-0.3-2.7-0.4-4-0.4c-2.8,0-5.4,0.6-7.5,1.7c-2.2,1.2-4,2.6-5.5,4.5c-1.5,1.8-2.6,3.9-3.4,6.2
			c-0.8,2.3-1.2,4.7-1.2,7c0,2.6,0.5,5.1,1.4,7.5c0.9,2.4,2.2,4.5,3.8,6.3c1.6,1.8,3.5,3.3,5.6,4.4c2.2,1.1,4.5,1.6,7,1.6
			c1.3,0,2.7-0.2,4.1-0.5c1.4-0.3,2.8-0.9,4.1-1.6c1.3-0.7,2.5-1.6,3.7-2.7c1.1-1.1,2.1-2.4,2.8-3.9l2.7,1.3c-0.8,1.7-1.8,3.2-3,4.5
			c-1.3,1.3-2.7,2.4-4.3,3.3c-1.6,0.9-3.3,1.5-5,2c-1.8,0.4-3.5,0.7-5.2,0.7c-3.1,0-5.8-0.7-8.4-2c-2.5-1.3-4.7-3.1-6.6-5.2
			c-1.8-2.2-3.3-4.6-4.3-7.3C30.1,128.9,29.6,126.1,29.6,123.2z"/>
		<path id="XMLID_102_" class="st0" d="M92.2,146.4c-2.3,0-4.4-0.5-6.4-1.3c-1.9-0.9-3.6-2.1-5-3.7c-1.4-1.5-2.5-3.3-3.3-5.4
			c-0.8-2-1.2-4.2-1.2-6.5c0-2.3,0.4-4.5,1.2-6.5c0.8-2,1.9-3.8,3.4-5.4c1.4-1.5,3.1-2.8,5-3.7c1.9-0.9,4-1.3,6.3-1.3
			c2.3,0,4.4,0.4,6.3,1.3c1.9,0.9,3.6,2.1,5.1,3.7c1.4,1.5,2.6,3.3,3.4,5.4c0.8,2,1.2,4.2,1.2,6.5c0,2.3-0.4,4.4-1.2,6.5
			c-0.8,2-1.9,3.8-3.4,5.4c-1.4,1.5-3.1,2.8-5.1,3.7C96.6,146,94.5,146.4,92.2,146.4z M79.5,129.7c0,1.9,0.3,3.7,1,5.4
			c0.7,1.7,1.6,3.2,2.7,4.4c1.1,1.3,2.5,2.2,4,3c1.5,0.7,3.2,1.1,5,1.1s3.4-0.4,5-1.1c1.5-0.7,2.9-1.7,4-3c1.1-1.3,2.1-2.8,2.8-4.5
			s1-3.5,1-5.5c0-1.9-0.3-3.7-1-5.4c-0.7-1.7-1.6-3.2-2.8-4.5c-1.2-1.3-2.5-2.3-4-3c-1.5-0.8-3.2-1.1-5-1.1c-1.7,0-3.3,0.4-4.9,1.1
			c-1.5,0.8-2.9,1.8-4.1,3.1c-1.2,1.3-2.1,2.8-2.8,4.5C79.8,125.9,79.5,127.8,79.5,129.7z"/>
		<path id="XMLID_105_" class="st0" d="M129.3,146.4c-7,0-10.5-4.8-10.5-14.4v-18.8h3.1v18.4c0,8,2.7,12,8.2,12c1.4,0,2.7-0.2,4-0.7
			c1.3-0.5,2.5-1.1,3.7-2c1.1-0.9,2.1-1.9,3-3.1c0.9-1.2,1.5-2.6,2-4v-20.6h3.1v28.2c0,1,0.4,1.6,1.3,1.6v2.8
			c-0.3,0-0.5,0.1-0.6,0.1c-0.2,0-0.3,0-0.5,0c-0.9,0-1.6-0.3-2.2-0.8c-0.6-0.5-0.8-1.2-0.8-2v-5c-1.5,2.6-3.4,4.7-5.9,6.1
			C134.9,145.7,132.2,146.4,129.3,146.4z"/>
		<path id="XMLID_107_" class="st0" d="M186.3,145.8h-3.1v-18.2c0-4.2-0.6-7.3-1.8-9.2c-1.2-1.9-3.1-2.9-5.7-2.9
			c-1.4,0-2.8,0.3-4.1,0.8c-1.4,0.5-2.6,1.2-3.8,2.1c-1.2,0.9-2.2,2-3,3.2c-0.9,1.2-1.5,2.6-1.9,4v20.2h-3.1v-32.6h2.9v7.8
			c0.7-1.3,1.5-2.4,2.5-3.4c1-1,2.1-1.9,3.3-2.6c1.2-0.7,2.5-1.3,3.9-1.7c1.4-0.4,2.8-0.6,4.3-0.6c3.6,0,6.1,1.2,7.5,3.7
			c1.5,2.5,2.2,6.1,2.2,10.7V145.8z"/>
		<path id="XMLID_109_" class="st0" d="M209.5,146.4c-2.5,0-4.9-0.4-7.2-1.3c-2.3-0.8-4.3-2.1-6-3.8l1.6-2.1
			c1.8,1.6,3.6,2.8,5.5,3.5c1.9,0.8,4,1.1,6.2,1.1c2.8,0,5.1-0.6,6.9-1.8c1.7-1.2,2.6-2.9,2.6-5c0-1-0.2-1.9-0.7-2.5s-1.1-1.3-2-1.8
			c-0.9-0.5-2-0.9-3.3-1.3c-1.3-0.4-2.8-0.8-4.5-1.2c-1.8-0.4-3.4-0.8-4.8-1.3c-1.4-0.4-2.5-0.9-3.4-1.5c-0.9-0.6-1.5-1.3-2-2.1
			c-0.4-0.8-0.7-1.9-0.7-3.2c0-1.6,0.3-3.1,0.9-4.3c0.6-1.2,1.5-2.2,2.6-3c1.1-0.8,2.4-1.4,3.8-1.8c1.4-0.4,3-0.6,4.6-0.6
			c2.6,0,4.8,0.4,6.8,1.3c2,0.9,3.5,2,4.6,3.3l-1.8,1.7c-1.1-1.3-2.5-2.2-4.2-2.8c-1.7-0.6-3.6-0.9-5.6-0.9c-1.2,0-2.4,0.1-3.4,0.4
			s-2,0.6-2.8,1.2c-0.8,0.5-1.4,1.2-1.9,2.1c-0.5,0.9-0.7,1.9-0.7,3c0,1,0.2,1.7,0.5,2.3c0.3,0.6,0.8,1.1,1.5,1.5
			c0.7,0.4,1.6,0.8,2.7,1.1c1.1,0.3,2.4,0.7,3.9,1c2,0.5,3.9,1,5.5,1.4c1.6,0.5,2.9,1,4,1.7c1.1,0.7,1.9,1.5,2.4,2.4
			c0.6,0.9,0.8,2.1,0.8,3.5c0,2.9-1.1,5.3-3.4,7C216.4,145.6,213.3,146.4,209.5,146.4z"/>
		<path id="XMLID_111_" class="st0" d="M246.8,146.4c-2.3,0-4.4-0.5-6.4-1.3c-2-0.9-3.7-2.1-5.1-3.7c-1.4-1.6-2.6-3.4-3.4-5.4
			c-0.8-2-1.2-4.2-1.2-6.6c0-2.3,0.4-4.5,1.2-6.5c0.8-2,1.9-3.8,3.4-5.3c1.4-1.5,3.1-2.7,5.1-3.6c2-0.9,4.1-1.3,6.3-1.3
			c2.3,0,4.4,0.4,6.4,1.3c1.9,0.9,3.6,2.1,5,3.6c1.4,1.5,2.5,3.3,3.4,5.3c0.8,2,1.2,4.2,1.2,6.4c0,0.2,0,0.5,0,0.8
			c0,0.3,0,0.5,0,0.6h-28.7c0.1,1.9,0.6,3.6,1.3,5.2c0.8,1.6,1.7,3,2.9,4.2c1.1,1.2,2.5,2.1,4,2.8c1.5,0.7,3.1,1,4.8,1
			c1.1,0,2.2-0.2,3.4-0.5c1.1-0.3,2.1-0.7,3.1-1.3c0.9-0.5,1.8-1.2,2.5-2c0.7-0.8,1.3-1.6,1.7-2.5l2.8,0.8c-0.5,1.2-1.2,2.2-2.1,3.2
			c-0.9,1-1.9,1.8-3.1,2.5c-1.2,0.7-2.5,1.3-3.9,1.7C249.8,146.2,248.3,146.4,246.8,146.4z M259.6,128.3c-0.1-1.9-0.6-3.7-1.3-5.3
			c-0.7-1.6-1.7-3-2.8-4.1c-1.2-1.1-2.5-2-4-2.7c-1.5-0.6-3.1-1-4.8-1c-1.7,0-3.3,0.3-4.8,1c-1.5,0.6-2.8,1.5-4,2.7
			c-1.2,1.2-2.1,2.5-2.8,4.1c-0.7,1.6-1.1,3.4-1.2,5.2H259.6z"/>
		<path id="XMLID_114_" class="st0" d="M273.3,100h3.2v39.3c0,1.2,0.3,2.2,1,2.9c0.7,0.7,1.6,1.1,2.9,1.1c0.5,0,1-0.1,1.7-0.2
			c0.6-0.1,1.2-0.3,1.8-0.5l0.6,2.5c-0.7,0.3-1.6,0.5-2.6,0.7c-1,0.2-1.9,0.3-2.7,0.3c-1.8,0-3.2-0.5-4.2-1.6
			c-1.1-1.1-1.6-2.5-1.6-4.3V100z"/>
		<path id="XMLID_116_" class="st0" d="M292.5,100h3.2v39.3c0,1.2,0.3,2.2,1,2.9c0.7,0.7,1.6,1.1,2.9,1.1c0.5,0,1-0.1,1.7-0.2
			c0.6-0.1,1.2-0.3,1.8-0.5l0.6,2.5c-0.7,0.3-1.6,0.5-2.6,0.7c-1,0.2-1.9,0.3-2.7,0.3c-1.8,0-3.2-0.5-4.2-1.6
			c-1.1-1.1-1.6-2.5-1.6-4.3V100z"/>
		<path id="XMLID_118_" class="st0" d="M311.5,105.8V100h3.1v5.8H311.5z M311.5,145.8v-32.6h3.1v32.6H311.5z"/>
		<path id="XMLID_121_" class="st0" d="M354.5,145.8h-3.1v-18.2c0-4.2-0.6-7.3-1.8-9.2c-1.2-1.9-3.1-2.9-5.7-2.9
			c-1.4,0-2.8,0.3-4.1,0.8c-1.4,0.5-2.6,1.2-3.8,2.1c-1.2,0.9-2.2,2-3,3.2c-0.9,1.2-1.5,2.6-1.9,4v20.2h-3.1v-32.6h2.9v7.8
			c0.7-1.3,1.5-2.4,2.5-3.4c1-1,2.1-1.9,3.3-2.6c1.2-0.7,2.5-1.3,3.9-1.7c1.4-0.4,2.8-0.6,4.3-0.6c3.6,0,6.1,1.2,7.5,3.7
			c1.5,2.5,2.2,6.1,2.2,10.7V145.8z"/>
		<path id="XMLID_123_" class="st0" d="M380.6,146.3c-2.3,0-4.3-0.5-6.2-1.4s-3.5-2.2-4.9-3.8c-1.4-1.6-2.4-3.4-3.2-5.4
			s-1.1-4.1-1.1-6.2c0-2.2,0.4-4.3,1.1-6.4c0.7-2,1.8-3.9,3.1-5.4c1.3-1.6,2.9-2.8,4.8-3.7c1.9-0.9,3.9-1.4,6.1-1.4
			c2.8,0,5.3,0.7,7.4,2.2c2.1,1.5,3.9,3.3,5.4,5.4v-7.1h2.8v33.2c0,2.2-0.4,4.2-1.3,5.8c-0.8,1.7-2,3.1-3.4,4.2
			c-1.4,1.1-3,1.9-4.9,2.5c-1.9,0.6-3.8,0.8-5.9,0.8c-1.9,0-3.6-0.2-5.1-0.5c-1.5-0.4-2.8-0.9-4-1.5c-1.2-0.6-2.2-1.4-3.1-2.4
			c-0.9-0.9-1.7-2-2.4-3.1l2.1-1.4c1.3,2.2,3.1,3.8,5.3,4.9c2.2,1,4.6,1.5,7.1,1.5c1.7,0,3.3-0.2,4.7-0.7c1.5-0.5,2.8-1.1,3.9-2
			c1.1-0.9,2-2,2.6-3.4c0.6-1.3,1-2.9,1-4.7v-7.2c-1.3,2.1-3.1,3.8-5.3,5.1C385.3,145.7,383,146.3,380.6,146.3z M381.4,143.6
			c1.4,0,2.7-0.3,4-0.8c1.3-0.5,2.5-1.2,3.5-2c1.1-0.8,2-1.8,2.7-2.8c0.7-1,1.1-2.1,1.3-3.1v-10.7c-0.5-1.3-1.2-2.4-2-3.5
			c-0.8-1.1-1.8-2-2.9-2.7c-1.1-0.8-2.2-1.3-3.4-1.8c-1.2-0.4-2.5-0.7-3.7-0.7c-2,0-3.7,0.4-5.3,1.3c-1.5,0.8-2.9,1.9-3.9,3.3
			c-1.1,1.3-1.9,2.9-2.4,4.5c-0.6,1.7-0.8,3.4-0.8,5.1c0,1.9,0.3,3.7,1,5.3c0.7,1.7,1.6,3.2,2.8,4.5c1.2,1.3,2.6,2.3,4.1,3.1
			C377.9,143.2,379.6,143.6,381.4,143.6z"/>
	</g>
</g>
<g id="XMLID_99_">
</g>
<g id="XMLID_144_">
</g>
<g id="XMLID_145_">
</g>
<g id="XMLID_146_">
</g>
<g id="XMLID_147_">
</g>
<g id="XMLID_148_">
</g>
</svg>
